M48
;Layer_Color=9474304
;FILE_FORMAT=2:4
METRIC,LZ
;TYPE=PLATED
T1F00S00C0.2540
T2F00S00C0.5080
T3F00S00C1.0200
T4F00S00C1.5240
%
T01
X5842Y1778
Y1905
Y2032
Y2159
Y2286
Y2413
Y2921
Y3048
Y3175
Y3302
Y3429
Y3556
X3302Y2159
X24765Y1651
T02
X14605Y1651
X1905
X3683Y22225
X4064
T03
X2794Y0254
X3048
X3302
X3556
X381
X4064
X4318
X4572
X508
X5334
X5588
X5842
X6096
X635
Y508
X6096
X5842
X5588
X5334
X508
X4826
X4572
X41275
X38735
X36195
X33655
X31115
X28575
X26035
X23495
X20955
X18415
T04
X0508Y2286
Y29845
M30
