G04*
G04 #@! TF.GenerationSoftware,Altium Limited,Altium Designer,23.0.1 (38)*
G04*
G04 Layer_Physical_Order=2*
G04 Layer_Color=16711680*
%FSLAX44Y44*%
%MOMM*%
G71*
G04*
G04 #@! TF.SameCoordinates,0F5A5953-1C99-4B13-B072-97D860EFC2FA*
G04*
G04*
G04 #@! TF.FilePolarity,Positive*
G04*
G01*
G75*
%ADD22R,1.5300X1.5300*%
%ADD23C,1.5300*%
%ADD24C,2.5400*%
%ADD25C,0.5080*%
%ADD26C,0.7112*%
G36*
X657810Y406400D02*
X658008Y405409D01*
X658569Y404569D01*
X683210Y379927D01*
Y39173D01*
X658569Y14531D01*
X658008Y13691D01*
X657810Y12700D01*
Y2590D01*
X2590D01*
Y530810D01*
X657810D01*
Y406400D01*
D02*
G37*
%LPC*%
G36*
X261692Y518190D02*
X261620D01*
Y509270D01*
X270540D01*
Y509342D01*
X269846Y511933D01*
X268504Y514257D01*
X266607Y516154D01*
X264283Y517496D01*
X261692Y518190D01*
D02*
G37*
G36*
X259080D02*
X259008D01*
X256417Y517496D01*
X254093Y516154D01*
X252196Y514257D01*
X250854Y511933D01*
X250160Y509342D01*
Y509270D01*
X259080D01*
Y518190D01*
D02*
G37*
G36*
X636342D02*
X633658D01*
X631067Y517496D01*
X628743Y516154D01*
X626846Y514257D01*
X625504Y511933D01*
X624810Y509342D01*
Y506658D01*
X625504Y504067D01*
X626846Y501743D01*
X628743Y499846D01*
X631067Y498504D01*
X633658Y497810D01*
X636342D01*
X638933Y498504D01*
X641257Y499846D01*
X643154Y501743D01*
X644496Y504067D01*
X645190Y506658D01*
Y509342D01*
X644496Y511933D01*
X643154Y514257D01*
X641257Y516154D01*
X638933Y517496D01*
X636342Y518190D01*
D02*
G37*
G36*
X610942D02*
X608258D01*
X605667Y517496D01*
X603343Y516154D01*
X601446Y514257D01*
X600104Y511933D01*
X599410Y509342D01*
Y506658D01*
X600104Y504067D01*
X601446Y501743D01*
X603343Y499846D01*
X605667Y498504D01*
X608258Y497810D01*
X610942D01*
X613533Y498504D01*
X615857Y499846D01*
X617754Y501743D01*
X619096Y504067D01*
X619790Y506658D01*
Y509342D01*
X619096Y511933D01*
X617754Y514257D01*
X615857Y516154D01*
X613533Y517496D01*
X610942Y518190D01*
D02*
G37*
G36*
X585542D02*
X582858D01*
X580267Y517496D01*
X577943Y516154D01*
X576046Y514257D01*
X574704Y511933D01*
X574010Y509342D01*
Y506658D01*
X574704Y504067D01*
X576046Y501743D01*
X577943Y499846D01*
X580267Y498504D01*
X582858Y497810D01*
X585542D01*
X588133Y498504D01*
X590457Y499846D01*
X592354Y501743D01*
X593696Y504067D01*
X594390Y506658D01*
Y509342D01*
X593696Y511933D01*
X592354Y514257D01*
X590457Y516154D01*
X588133Y517496D01*
X585542Y518190D01*
D02*
G37*
G36*
X560142D02*
X557458D01*
X554867Y517496D01*
X552543Y516154D01*
X550646Y514257D01*
X549304Y511933D01*
X548610Y509342D01*
Y506658D01*
X549304Y504067D01*
X550646Y501743D01*
X552543Y499846D01*
X554867Y498504D01*
X557458Y497810D01*
X560142D01*
X562733Y498504D01*
X565057Y499846D01*
X566954Y501743D01*
X568296Y504067D01*
X568990Y506658D01*
Y509342D01*
X568296Y511933D01*
X566954Y514257D01*
X565057Y516154D01*
X562733Y517496D01*
X560142Y518190D01*
D02*
G37*
G36*
X534742D02*
X532058D01*
X529467Y517496D01*
X527143Y516154D01*
X525246Y514257D01*
X523904Y511933D01*
X523210Y509342D01*
Y506658D01*
X523904Y504067D01*
X525246Y501743D01*
X527143Y499846D01*
X529467Y498504D01*
X532058Y497810D01*
X534742D01*
X537333Y498504D01*
X539657Y499846D01*
X541554Y501743D01*
X542896Y504067D01*
X543590Y506658D01*
Y509342D01*
X542896Y511933D01*
X541554Y514257D01*
X539657Y516154D01*
X537333Y517496D01*
X534742Y518190D01*
D02*
G37*
G36*
X509342D02*
X506658D01*
X504067Y517496D01*
X501743Y516154D01*
X499846Y514257D01*
X498504Y511933D01*
X497810Y509342D01*
Y506658D01*
X498504Y504067D01*
X499846Y501743D01*
X501743Y499846D01*
X504067Y498504D01*
X506658Y497810D01*
X509342D01*
X511933Y498504D01*
X514257Y499846D01*
X516154Y501743D01*
X517496Y504067D01*
X518190Y506658D01*
Y509342D01*
X517496Y511933D01*
X516154Y514257D01*
X514257Y516154D01*
X511933Y517496D01*
X509342Y518190D01*
D02*
G37*
G36*
X483942D02*
X481258D01*
X478667Y517496D01*
X476343Y516154D01*
X474446Y514257D01*
X473104Y511933D01*
X472410Y509342D01*
Y506658D01*
X473104Y504067D01*
X474446Y501743D01*
X476343Y499846D01*
X478667Y498504D01*
X481258Y497810D01*
X483942D01*
X486533Y498504D01*
X488857Y499846D01*
X490754Y501743D01*
X492096Y504067D01*
X492790Y506658D01*
Y509342D01*
X492096Y511933D01*
X490754Y514257D01*
X488857Y516154D01*
X486533Y517496D01*
X483942Y518190D01*
D02*
G37*
G36*
X467390D02*
X447010D01*
Y497810D01*
X467390D01*
Y518190D01*
D02*
G37*
G36*
X414092D02*
X411408D01*
X408817Y517496D01*
X406493Y516154D01*
X404596Y514257D01*
X403254Y511933D01*
X402560Y509342D01*
Y506658D01*
X403254Y504067D01*
X404596Y501743D01*
X406493Y499846D01*
X408817Y498504D01*
X411408Y497810D01*
X414092D01*
X416683Y498504D01*
X419007Y499846D01*
X420904Y501743D01*
X422246Y504067D01*
X422940Y506658D01*
Y509342D01*
X422246Y511933D01*
X420904Y514257D01*
X419007Y516154D01*
X416683Y517496D01*
X414092Y518190D01*
D02*
G37*
G36*
X388692D02*
X386008D01*
X383417Y517496D01*
X381093Y516154D01*
X379196Y514257D01*
X377854Y511933D01*
X377160Y509342D01*
Y506658D01*
X377854Y504067D01*
X379196Y501743D01*
X381093Y499846D01*
X383417Y498504D01*
X386008Y497810D01*
X388692D01*
X391283Y498504D01*
X393607Y499846D01*
X395504Y501743D01*
X396846Y504067D01*
X397540Y506658D01*
Y509342D01*
X396846Y511933D01*
X395504Y514257D01*
X393607Y516154D01*
X391283Y517496D01*
X388692Y518190D01*
D02*
G37*
G36*
X363292D02*
X360608D01*
X358017Y517496D01*
X355693Y516154D01*
X353796Y514257D01*
X352454Y511933D01*
X351760Y509342D01*
Y506658D01*
X352454Y504067D01*
X353796Y501743D01*
X355693Y499846D01*
X358017Y498504D01*
X360608Y497810D01*
X363292D01*
X365883Y498504D01*
X368207Y499846D01*
X370104Y501743D01*
X371446Y504067D01*
X372140Y506658D01*
Y509342D01*
X371446Y511933D01*
X370104Y514257D01*
X368207Y516154D01*
X365883Y517496D01*
X363292Y518190D01*
D02*
G37*
G36*
X337892D02*
X335208D01*
X332617Y517496D01*
X330293Y516154D01*
X328396Y514257D01*
X327054Y511933D01*
X326360Y509342D01*
Y506658D01*
X327054Y504067D01*
X328396Y501743D01*
X330293Y499846D01*
X332617Y498504D01*
X335208Y497810D01*
X337892D01*
X340483Y498504D01*
X342807Y499846D01*
X344704Y501743D01*
X346046Y504067D01*
X346740Y506658D01*
Y509342D01*
X346046Y511933D01*
X344704Y514257D01*
X342807Y516154D01*
X340483Y517496D01*
X337892Y518190D01*
D02*
G37*
G36*
X312492D02*
X309808D01*
X307217Y517496D01*
X304893Y516154D01*
X302996Y514257D01*
X301654Y511933D01*
X300960Y509342D01*
Y506658D01*
X301654Y504067D01*
X302996Y501743D01*
X304893Y499846D01*
X307217Y498504D01*
X309808Y497810D01*
X312492D01*
X315083Y498504D01*
X317407Y499846D01*
X319304Y501743D01*
X320646Y504067D01*
X321340Y506658D01*
Y509342D01*
X320646Y511933D01*
X319304Y514257D01*
X317407Y516154D01*
X315083Y517496D01*
X312492Y518190D01*
D02*
G37*
G36*
X287092D02*
X284408D01*
X281817Y517496D01*
X279493Y516154D01*
X277596Y514257D01*
X276254Y511933D01*
X275560Y509342D01*
Y506658D01*
X276254Y504067D01*
X277596Y501743D01*
X279493Y499846D01*
X281817Y498504D01*
X284408Y497810D01*
X287092D01*
X289683Y498504D01*
X292007Y499846D01*
X293904Y501743D01*
X295246Y504067D01*
X295940Y506658D01*
Y509342D01*
X295246Y511933D01*
X293904Y514257D01*
X292007Y516154D01*
X289683Y517496D01*
X287092Y518190D01*
D02*
G37*
G36*
X270540Y506730D02*
X261620D01*
Y497810D01*
X261692D01*
X264283Y498504D01*
X266607Y499846D01*
X268504Y501743D01*
X269846Y504067D01*
X270540Y506658D01*
Y506730D01*
D02*
G37*
G36*
X259080D02*
X250160D01*
Y506658D01*
X250854Y504067D01*
X252196Y501743D01*
X254093Y499846D01*
X256417Y498504D01*
X259008Y497810D01*
X259080D01*
Y506730D01*
D02*
G37*
G36*
X236292Y518190D02*
X233608D01*
X231017Y517496D01*
X228693Y516154D01*
X226796Y514257D01*
X225454Y511933D01*
X224760Y509342D01*
Y506658D01*
X225454Y504067D01*
X226796Y501743D01*
X228693Y499846D01*
X231017Y498504D01*
X233608Y497810D01*
X236292D01*
X238883Y498504D01*
X241207Y499846D01*
X243104Y501743D01*
X244446Y504067D01*
X245140Y506658D01*
Y509342D01*
X244446Y511933D01*
X243104Y514257D01*
X241207Y516154D01*
X238883Y517496D01*
X236292Y518190D01*
D02*
G37*
G36*
X210892D02*
X208208D01*
X205617Y517496D01*
X203293Y516154D01*
X201396Y514257D01*
X200054Y511933D01*
X199360Y509342D01*
Y506658D01*
X200054Y504067D01*
X201396Y501743D01*
X203293Y499846D01*
X205617Y498504D01*
X208208Y497810D01*
X210892D01*
X213483Y498504D01*
X215807Y499846D01*
X217704Y501743D01*
X219046Y504067D01*
X219740Y506658D01*
Y509342D01*
X219046Y511933D01*
X217704Y514257D01*
X215807Y516154D01*
X213483Y517496D01*
X210892Y518190D01*
D02*
G37*
G36*
X194340D02*
X173960D01*
Y497810D01*
X194340D01*
Y518190D01*
D02*
G37*
G36*
X585470Y360573D02*
Y356870D01*
X589173D01*
X588507Y358478D01*
X587078Y359907D01*
X585470Y360573D01*
D02*
G37*
G36*
X582930D02*
X581322Y359907D01*
X579893Y358478D01*
X579227Y356870D01*
X582930D01*
Y360573D01*
D02*
G37*
G36*
X589173Y354330D02*
X585470D01*
Y350628D01*
X587078Y351293D01*
X588507Y352722D01*
X589173Y354330D01*
D02*
G37*
G36*
X582930D02*
X579227D01*
X579893Y352722D01*
X581322Y351293D01*
X582930Y350628D01*
Y354330D01*
D02*
G37*
G36*
X585470Y347873D02*
Y344170D01*
X589173D01*
X588507Y345778D01*
X587078Y347207D01*
X585470Y347873D01*
D02*
G37*
G36*
X582930D02*
X581322Y347207D01*
X579893Y345778D01*
X579227Y344170D01*
X582930D01*
Y347873D01*
D02*
G37*
G36*
X589173Y341630D02*
X585470D01*
Y337928D01*
X587078Y338593D01*
X588507Y340022D01*
X589173Y341630D01*
D02*
G37*
G36*
X582930D02*
X579227D01*
X579893Y340022D01*
X581322Y338593D01*
X582930Y337928D01*
Y341630D01*
D02*
G37*
G36*
X585470Y335173D02*
Y331470D01*
X589173D01*
X588507Y333078D01*
X587078Y334507D01*
X585470Y335173D01*
D02*
G37*
G36*
X582930D02*
X581322Y334507D01*
X579893Y333078D01*
X579227Y331470D01*
X582930D01*
Y335173D01*
D02*
G37*
G36*
X589173Y328930D02*
X585470D01*
Y325228D01*
X587078Y325893D01*
X588507Y327322D01*
X589173Y328930D01*
D02*
G37*
G36*
X582930D02*
X579227D01*
X579893Y327322D01*
X581322Y325893D01*
X582930Y325228D01*
Y328930D01*
D02*
G37*
G36*
X585470Y322472D02*
Y318770D01*
X589173D01*
X588507Y320378D01*
X587078Y321807D01*
X585470Y322472D01*
D02*
G37*
G36*
X582930D02*
X581322Y321807D01*
X579893Y320378D01*
X579227Y318770D01*
X582930D01*
Y322472D01*
D02*
G37*
G36*
X589173Y316230D02*
X585470D01*
Y312528D01*
X587078Y313193D01*
X588507Y314622D01*
X589173Y316230D01*
D02*
G37*
G36*
X582930D02*
X579227D01*
X579893Y314622D01*
X581322Y313193D01*
X582930Y312528D01*
Y316230D01*
D02*
G37*
G36*
X585470Y309772D02*
Y306070D01*
X589173D01*
X588507Y307678D01*
X587078Y309107D01*
X585470Y309772D01*
D02*
G37*
G36*
X582930D02*
X581322Y309107D01*
X579893Y307678D01*
X579227Y306070D01*
X582930D01*
Y309772D01*
D02*
G37*
G36*
X589173Y303530D02*
X585470D01*
Y299827D01*
X587078Y300493D01*
X588507Y301922D01*
X589173Y303530D01*
D02*
G37*
G36*
X582930D02*
X579227D01*
X579893Y301922D01*
X581322Y300493D01*
X582930Y299827D01*
Y303530D01*
D02*
G37*
G36*
X585470Y297073D02*
Y293370D01*
X589173D01*
X588507Y294978D01*
X587078Y296407D01*
X585470Y297073D01*
D02*
G37*
G36*
X582930D02*
X581322Y296407D01*
X579893Y294978D01*
X579227Y293370D01*
X582930D01*
Y297073D01*
D02*
G37*
G36*
X589173Y290830D02*
X585470D01*
Y287127D01*
X587078Y287793D01*
X588507Y289222D01*
X589173Y290830D01*
D02*
G37*
G36*
X582930D02*
X579227D01*
X579893Y289222D01*
X581322Y287793D01*
X582930Y287127D01*
Y290830D01*
D02*
G37*
G36*
X52301Y313690D02*
X49299D01*
X46355Y313104D01*
X43581Y311956D01*
X41085Y310288D01*
X38962Y308165D01*
X37294Y305669D01*
X36146Y302895D01*
X35560Y299951D01*
Y296949D01*
X36146Y294005D01*
X37294Y291231D01*
X38962Y288735D01*
X41085Y286612D01*
X43581Y284944D01*
X46355Y283796D01*
X49299Y283210D01*
X52301D01*
X55245Y283796D01*
X58019Y284944D01*
X60515Y286612D01*
X62638Y288735D01*
X64306Y291231D01*
X65454Y294005D01*
X66040Y296949D01*
Y299951D01*
X65454Y302895D01*
X64306Y305669D01*
X62638Y308165D01*
X60515Y310288D01*
X58019Y311956D01*
X55245Y313104D01*
X52301Y313690D01*
D02*
G37*
G36*
X585470Y246273D02*
Y242570D01*
X589173D01*
X588507Y244178D01*
X587078Y245607D01*
X585470Y246273D01*
D02*
G37*
G36*
X582930D02*
X581322Y245607D01*
X579893Y244178D01*
X579227Y242570D01*
X582930D01*
Y246273D01*
D02*
G37*
G36*
X589173Y240030D02*
X585470D01*
Y236327D01*
X587078Y236993D01*
X588507Y238422D01*
X589173Y240030D01*
D02*
G37*
G36*
X582930D02*
X579227D01*
X579893Y238422D01*
X581322Y236993D01*
X582930Y236327D01*
Y240030D01*
D02*
G37*
G36*
X585470Y233573D02*
Y229870D01*
X589173D01*
X588507Y231478D01*
X587078Y232907D01*
X585470Y233573D01*
D02*
G37*
G36*
X582930D02*
X581322Y232907D01*
X579893Y231478D01*
X579227Y229870D01*
X582930D01*
Y233573D01*
D02*
G37*
G36*
X52301Y243840D02*
X52070D01*
Y229870D01*
X66040D01*
Y230101D01*
X65454Y233045D01*
X64306Y235819D01*
X62638Y238315D01*
X60515Y240438D01*
X58019Y242106D01*
X55245Y243254D01*
X52301Y243840D01*
D02*
G37*
G36*
X49530D02*
X49299D01*
X46355Y243254D01*
X43581Y242106D01*
X41085Y240438D01*
X38962Y238315D01*
X37294Y235819D01*
X36146Y233045D01*
X35560Y230101D01*
Y229870D01*
X49530D01*
Y243840D01*
D02*
G37*
G36*
X589173Y227330D02*
X585470D01*
Y223627D01*
X587078Y224293D01*
X588507Y225722D01*
X589173Y227330D01*
D02*
G37*
G36*
X582930D02*
X579227D01*
X579893Y225722D01*
X581322Y224293D01*
X582930Y223627D01*
Y227330D01*
D02*
G37*
G36*
X407670Y228322D02*
Y223520D01*
X412472D01*
X411568Y225703D01*
X409853Y227418D01*
X407670Y228322D01*
D02*
G37*
G36*
X405130D02*
X402947Y227418D01*
X401232Y225703D01*
X400328Y223520D01*
X405130D01*
Y228322D01*
D02*
G37*
G36*
X369570D02*
Y223520D01*
X374372D01*
X373468Y225703D01*
X371753Y227418D01*
X369570Y228322D01*
D02*
G37*
G36*
X367030D02*
X364847Y227418D01*
X363132Y225703D01*
X362228Y223520D01*
X367030D01*
Y228322D01*
D02*
G37*
G36*
X585470Y220872D02*
Y217170D01*
X589173D01*
X588507Y218778D01*
X587078Y220207D01*
X585470Y220872D01*
D02*
G37*
G36*
X582930D02*
X581322Y220207D01*
X579893Y218778D01*
X579227Y217170D01*
X582930D01*
Y220872D01*
D02*
G37*
G36*
X331470D02*
Y217170D01*
X335173D01*
X334507Y218778D01*
X333078Y220207D01*
X331470Y220872D01*
D02*
G37*
G36*
X328930D02*
X327322Y220207D01*
X325893Y218778D01*
X325228Y217170D01*
X328930D01*
Y220872D01*
D02*
G37*
G36*
X412472Y220980D02*
X407670D01*
Y216178D01*
X409853Y217082D01*
X411568Y218797D01*
X412472Y220980D01*
D02*
G37*
G36*
X405130D02*
X400328D01*
X401232Y218797D01*
X402947Y217082D01*
X405130Y216178D01*
Y220980D01*
D02*
G37*
G36*
X374372D02*
X369570D01*
Y216178D01*
X371753Y217082D01*
X373468Y218797D01*
X374372Y220980D01*
D02*
G37*
G36*
X367030D02*
X362228D01*
X363132Y218797D01*
X364847Y217082D01*
X367030Y216178D01*
Y220980D01*
D02*
G37*
G36*
X66040Y227330D02*
X52070D01*
Y213360D01*
X52301D01*
X55245Y213946D01*
X58019Y215095D01*
X60515Y216762D01*
X62638Y218885D01*
X64306Y221381D01*
X65454Y224155D01*
X66040Y227099D01*
Y227330D01*
D02*
G37*
G36*
X49530D02*
X35560D01*
Y227099D01*
X36146Y224155D01*
X37294Y221381D01*
X38962Y218885D01*
X41085Y216762D01*
X43581Y215095D01*
X46355Y213946D01*
X49299Y213360D01*
X49530D01*
Y227330D01*
D02*
G37*
G36*
X589173Y214630D02*
X585470D01*
Y210928D01*
X587078Y211593D01*
X588507Y213022D01*
X589173Y214630D01*
D02*
G37*
G36*
X582930D02*
X579227D01*
X579893Y213022D01*
X581322Y211593D01*
X582930Y210928D01*
Y214630D01*
D02*
G37*
G36*
X335173D02*
X331470D01*
Y210928D01*
X333078Y211593D01*
X334507Y213022D01*
X335173Y214630D01*
D02*
G37*
G36*
X328930D02*
X325228D01*
X325893Y213022D01*
X327322Y211593D01*
X328930Y210928D01*
Y214630D01*
D02*
G37*
G36*
X585470Y208172D02*
Y204470D01*
X589173D01*
X588507Y206078D01*
X587078Y207507D01*
X585470Y208172D01*
D02*
G37*
G36*
X582930D02*
X581322Y207507D01*
X579893Y206078D01*
X579227Y204470D01*
X582930D01*
Y208172D01*
D02*
G37*
G36*
X589173Y201930D02*
X585470D01*
Y198228D01*
X587078Y198893D01*
X588507Y200322D01*
X589173Y201930D01*
D02*
G37*
G36*
X582930D02*
X579227D01*
X579893Y200322D01*
X581322Y198893D01*
X582930Y198228D01*
Y201930D01*
D02*
G37*
G36*
X585470Y195473D02*
Y191770D01*
X589173D01*
X588507Y193378D01*
X587078Y194807D01*
X585470Y195473D01*
D02*
G37*
G36*
X582930D02*
X581322Y194807D01*
X579893Y193378D01*
X579227Y191770D01*
X582930D01*
Y195473D01*
D02*
G37*
G36*
X589173Y189230D02*
X585470D01*
Y185527D01*
X587078Y186193D01*
X588507Y187622D01*
X589173Y189230D01*
D02*
G37*
G36*
X582930D02*
X579227D01*
X579893Y187622D01*
X581322Y186193D01*
X582930Y185527D01*
Y189230D01*
D02*
G37*
G36*
X585470Y182773D02*
Y179070D01*
X589173D01*
X588507Y180678D01*
X587078Y182107D01*
X585470Y182773D01*
D02*
G37*
G36*
X582930D02*
X581322Y182107D01*
X579893Y180678D01*
X579227Y179070D01*
X582930D01*
Y182773D01*
D02*
G37*
G36*
X589173Y176530D02*
X585470D01*
Y172827D01*
X587078Y173493D01*
X588507Y174922D01*
X589173Y176530D01*
D02*
G37*
G36*
X582930D02*
X579227D01*
X579893Y174922D01*
X581322Y173493D01*
X582930Y172827D01*
Y176530D01*
D02*
G37*
G36*
X248920Y170072D02*
Y166370D01*
X252623D01*
X251957Y167978D01*
X250528Y169407D01*
X248920Y170072D01*
D02*
G37*
G36*
X246380D02*
X244772Y169407D01*
X243343Y167978D01*
X242677Y166370D01*
X246380D01*
Y170072D01*
D02*
G37*
G36*
X191770Y171172D02*
Y166370D01*
X196572D01*
X195668Y168553D01*
X193953Y170268D01*
X191770Y171172D01*
D02*
G37*
G36*
X189230D02*
X187047Y170268D01*
X185332Y168553D01*
X184428Y166370D01*
X189230D01*
Y171172D01*
D02*
G37*
G36*
X147320D02*
Y166370D01*
X152122D01*
X151218Y168553D01*
X149503Y170268D01*
X147320Y171172D01*
D02*
G37*
G36*
X144780D02*
X142597Y170268D01*
X140882Y168553D01*
X139978Y166370D01*
X144780D01*
Y171172D01*
D02*
G37*
G36*
X252623Y163830D02*
X248920D01*
Y160128D01*
X250528Y160793D01*
X251957Y162222D01*
X252623Y163830D01*
D02*
G37*
G36*
X246380D02*
X242677D01*
X243343Y162222D01*
X244772Y160793D01*
X246380Y160128D01*
Y163830D01*
D02*
G37*
G36*
X196572D02*
X191770D01*
Y159028D01*
X193953Y159932D01*
X195668Y161647D01*
X196572Y163830D01*
D02*
G37*
G36*
X189230D02*
X184428D01*
X185332Y161647D01*
X187047Y159932D01*
X189230Y159028D01*
Y163830D01*
D02*
G37*
G36*
X152122D02*
X147320D01*
Y159028D01*
X149503Y159932D01*
X151218Y161647D01*
X152122Y163830D01*
D02*
G37*
G36*
X144780D02*
X139978D01*
X140882Y161647D01*
X142597Y159932D01*
X144780Y159028D01*
Y163830D01*
D02*
G37*
G36*
X407742Y35590D02*
X407670D01*
Y26670D01*
X416590D01*
Y26742D01*
X415896Y29333D01*
X414554Y31657D01*
X412657Y33554D01*
X410333Y34896D01*
X407742Y35590D01*
D02*
G37*
G36*
X433142D02*
X433070D01*
Y26670D01*
X441990D01*
Y26742D01*
X441296Y29333D01*
X439954Y31657D01*
X438057Y33554D01*
X435733Y34896D01*
X433142Y35590D01*
D02*
G37*
G36*
X405130D02*
X405058D01*
X402467Y34896D01*
X400143Y33554D01*
X398246Y31657D01*
X396904Y29333D01*
X396210Y26742D01*
Y26670D01*
X405130D01*
Y35590D01*
D02*
G37*
G36*
X430530D02*
X430458D01*
X427867Y34896D01*
X425543Y33554D01*
X423646Y31657D01*
X422304Y29333D01*
X421610Y26742D01*
Y26670D01*
X430530D01*
Y35590D01*
D02*
G37*
G36*
X636342D02*
X633658D01*
X631067Y34896D01*
X628743Y33554D01*
X626846Y31657D01*
X625504Y29333D01*
X624810Y26742D01*
Y24058D01*
X625504Y21467D01*
X626846Y19143D01*
X628743Y17246D01*
X631067Y15904D01*
X633658Y15210D01*
X636342D01*
X638933Y15904D01*
X641257Y17246D01*
X643154Y19143D01*
X644496Y21467D01*
X645190Y24058D01*
Y26742D01*
X644496Y29333D01*
X643154Y31657D01*
X641257Y33554D01*
X638933Y34896D01*
X636342Y35590D01*
D02*
G37*
G36*
X610942D02*
X608258D01*
X605667Y34896D01*
X603343Y33554D01*
X601446Y31657D01*
X600104Y29333D01*
X599410Y26742D01*
Y24058D01*
X600104Y21467D01*
X601446Y19143D01*
X603343Y17246D01*
X605667Y15904D01*
X608258Y15210D01*
X610942D01*
X613533Y15904D01*
X615857Y17246D01*
X617754Y19143D01*
X619096Y21467D01*
X619790Y24058D01*
Y26742D01*
X619096Y29333D01*
X617754Y31657D01*
X615857Y33554D01*
X613533Y34896D01*
X610942Y35590D01*
D02*
G37*
G36*
X585542D02*
X582858D01*
X580267Y34896D01*
X577943Y33554D01*
X576046Y31657D01*
X574704Y29333D01*
X574010Y26742D01*
Y24058D01*
X574704Y21467D01*
X576046Y19143D01*
X577943Y17246D01*
X580267Y15904D01*
X582858Y15210D01*
X585542D01*
X588133Y15904D01*
X590457Y17246D01*
X592354Y19143D01*
X593696Y21467D01*
X594390Y24058D01*
Y26742D01*
X593696Y29333D01*
X592354Y31657D01*
X590457Y33554D01*
X588133Y34896D01*
X585542Y35590D01*
D02*
G37*
G36*
X560142D02*
X557458D01*
X554867Y34896D01*
X552543Y33554D01*
X550646Y31657D01*
X549304Y29333D01*
X548610Y26742D01*
Y24058D01*
X549304Y21467D01*
X550646Y19143D01*
X552543Y17246D01*
X554867Y15904D01*
X557458Y15210D01*
X560142D01*
X562733Y15904D01*
X565057Y17246D01*
X566954Y19143D01*
X568296Y21467D01*
X568990Y24058D01*
Y26742D01*
X568296Y29333D01*
X566954Y31657D01*
X565057Y33554D01*
X562733Y34896D01*
X560142Y35590D01*
D02*
G37*
G36*
X534742D02*
X532058D01*
X529467Y34896D01*
X527143Y33554D01*
X525246Y31657D01*
X523904Y29333D01*
X523210Y26742D01*
Y24058D01*
X523904Y21467D01*
X525246Y19143D01*
X527143Y17246D01*
X529467Y15904D01*
X532058Y15210D01*
X534742D01*
X537333Y15904D01*
X539657Y17246D01*
X541554Y19143D01*
X542896Y21467D01*
X543590Y24058D01*
Y26742D01*
X542896Y29333D01*
X541554Y31657D01*
X539657Y33554D01*
X537333Y34896D01*
X534742Y35590D01*
D02*
G37*
G36*
X518190D02*
X497810D01*
Y15210D01*
X518190D01*
Y35590D01*
D02*
G37*
G36*
X458542D02*
X455858D01*
X453267Y34896D01*
X450943Y33554D01*
X449046Y31657D01*
X447704Y29333D01*
X447010Y26742D01*
Y24058D01*
X447704Y21467D01*
X449046Y19143D01*
X450943Y17246D01*
X453267Y15904D01*
X455858Y15210D01*
X458542D01*
X461133Y15904D01*
X463457Y17246D01*
X465354Y19143D01*
X466696Y21467D01*
X467390Y24058D01*
Y26742D01*
X466696Y29333D01*
X465354Y31657D01*
X463457Y33554D01*
X461133Y34896D01*
X458542Y35590D01*
D02*
G37*
G36*
X441990Y24130D02*
X433070D01*
Y15210D01*
X433142D01*
X435733Y15904D01*
X438057Y17246D01*
X439954Y19143D01*
X441296Y21467D01*
X441990Y24058D01*
Y24130D01*
D02*
G37*
G36*
X430530D02*
X421610D01*
Y24058D01*
X422304Y21467D01*
X423646Y19143D01*
X425543Y17246D01*
X427867Y15904D01*
X430458Y15210D01*
X430530D01*
Y24130D01*
D02*
G37*
G36*
X416590D02*
X407670D01*
Y15210D01*
X407742D01*
X410333Y15904D01*
X412657Y17246D01*
X414554Y19143D01*
X415896Y21467D01*
X416590Y24058D01*
Y24130D01*
D02*
G37*
G36*
X405130D02*
X396210D01*
Y24058D01*
X396904Y21467D01*
X398246Y19143D01*
X400143Y17246D01*
X402467Y15904D01*
X405058Y15210D01*
X405130D01*
Y24130D01*
D02*
G37*
G36*
X382342Y35590D02*
X379658D01*
X377067Y34896D01*
X374743Y33554D01*
X372846Y31657D01*
X371504Y29333D01*
X370810Y26742D01*
Y24058D01*
X371504Y21467D01*
X372846Y19143D01*
X374743Y17246D01*
X377067Y15904D01*
X379658Y15210D01*
X382342D01*
X384933Y15904D01*
X387257Y17246D01*
X389154Y19143D01*
X390496Y21467D01*
X391190Y24058D01*
Y26742D01*
X390496Y29333D01*
X389154Y31657D01*
X387257Y33554D01*
X384933Y34896D01*
X382342Y35590D01*
D02*
G37*
G36*
X356942D02*
X354258D01*
X351667Y34896D01*
X349343Y33554D01*
X347446Y31657D01*
X346104Y29333D01*
X345410Y26742D01*
Y24058D01*
X346104Y21467D01*
X347446Y19143D01*
X349343Y17246D01*
X351667Y15904D01*
X354258Y15210D01*
X356942D01*
X359533Y15904D01*
X361857Y17246D01*
X363754Y19143D01*
X365096Y21467D01*
X365790Y24058D01*
Y26742D01*
X365096Y29333D01*
X363754Y31657D01*
X361857Y33554D01*
X359533Y34896D01*
X356942Y35590D01*
D02*
G37*
G36*
X331542D02*
X328858D01*
X326267Y34896D01*
X323943Y33554D01*
X322046Y31657D01*
X320704Y29333D01*
X320010Y26742D01*
Y24058D01*
X320704Y21467D01*
X322046Y19143D01*
X323943Y17246D01*
X326267Y15904D01*
X328858Y15210D01*
X331542D01*
X334133Y15904D01*
X336457Y17246D01*
X338354Y19143D01*
X339696Y21467D01*
X340390Y24058D01*
Y26742D01*
X339696Y29333D01*
X338354Y31657D01*
X336457Y33554D01*
X334133Y34896D01*
X331542Y35590D01*
D02*
G37*
G36*
X306142D02*
X303458D01*
X300867Y34896D01*
X298543Y33554D01*
X296646Y31657D01*
X295304Y29333D01*
X294610Y26742D01*
Y24058D01*
X295304Y21467D01*
X296646Y19143D01*
X298543Y17246D01*
X300867Y15904D01*
X303458Y15210D01*
X306142D01*
X308733Y15904D01*
X311057Y17246D01*
X312954Y19143D01*
X314296Y21467D01*
X314990Y24058D01*
Y26742D01*
X314296Y29333D01*
X312954Y31657D01*
X311057Y33554D01*
X308733Y34896D01*
X306142Y35590D01*
D02*
G37*
G36*
X289590D02*
X269210D01*
Y15210D01*
X289590D01*
Y35590D01*
D02*
G37*
%LPD*%
D22*
X184150Y508000D02*
D03*
X457200D02*
D03*
X508000Y25400D02*
D03*
X279400D02*
D03*
D23*
X209550Y508000D02*
D03*
X234950D02*
D03*
X260350D02*
D03*
X285750D02*
D03*
X311150D02*
D03*
X336550D02*
D03*
X361950D02*
D03*
X387350D02*
D03*
X412750D02*
D03*
X482600D02*
D03*
X508000D02*
D03*
X533400D02*
D03*
X558800D02*
D03*
X584200D02*
D03*
X609600D02*
D03*
X635000D02*
D03*
X533400Y25400D02*
D03*
X558800D02*
D03*
X584200D02*
D03*
X609600D02*
D03*
X635000D02*
D03*
X304800D02*
D03*
X330200D02*
D03*
X355600D02*
D03*
X381000D02*
D03*
X406400D02*
D03*
X431800D02*
D03*
X457200D02*
D03*
D24*
X50800Y228600D02*
D03*
Y298450D02*
D03*
D25*
X584200Y355600D02*
D03*
Y342900D02*
D03*
Y330200D02*
D03*
Y317500D02*
D03*
Y304800D02*
D03*
Y292100D02*
D03*
Y241300D02*
D03*
Y228600D02*
D03*
Y215900D02*
D03*
Y203200D02*
D03*
Y190500D02*
D03*
Y177800D02*
D03*
X330200Y215900D02*
D03*
X247650Y165100D02*
D03*
D26*
X406400Y222250D02*
D03*
X368300D02*
D03*
X190500Y165100D02*
D03*
X146050D02*
D03*
M02*
