G04*
G04 #@! TF.GenerationSoftware,Altium Limited,Altium Designer,23.0.1 (38)*
G04*
G04 Layer_Color=128*
%FSLAX44Y44*%
%MOMM*%
G71*
G04*
G04 #@! TF.SameCoordinates,0F5A5953-1C99-4B13-B072-97D860EFC2FA*
G04*
G04*
G04 #@! TF.FilePolarity,Positive*
G04*
G01*
G75*
%ADD28C,0.1270*%
D28*
X179050Y508000D02*
X189250D01*
X184150Y502900D02*
Y513100D01*
X204450Y508000D02*
X214650D01*
X209550Y502900D02*
Y513100D01*
X229850Y508000D02*
X240050D01*
X234950Y502900D02*
Y513100D01*
X255250Y508000D02*
X265450D01*
X260350Y502900D02*
Y513100D01*
X280650Y508000D02*
X290850D01*
X285750Y502900D02*
Y513100D01*
X306050Y508000D02*
X316250D01*
X311150Y502900D02*
Y513100D01*
X331450Y508000D02*
X341650D01*
X336550Y502900D02*
Y513100D01*
X356850Y508000D02*
X367050D01*
X361950Y502900D02*
Y513100D01*
X382250Y508000D02*
X392450D01*
X387350Y502900D02*
Y513100D01*
X407650Y508000D02*
X417850D01*
X412750Y502900D02*
Y513100D01*
X452100Y508000D02*
X462300D01*
X457200Y502900D02*
Y513100D01*
X477500Y508000D02*
X487700D01*
X482600Y502900D02*
Y513100D01*
X502900Y508000D02*
X513100D01*
X508000Y502900D02*
Y513100D01*
X528300Y508000D02*
X538500D01*
X533400Y502900D02*
Y513100D01*
X553700Y508000D02*
X563900D01*
X558800Y502900D02*
Y513100D01*
X579100Y508000D02*
X589300D01*
X584200Y502900D02*
Y513100D01*
X604500Y508000D02*
X614700D01*
X609600Y502900D02*
Y513100D01*
X629900Y508000D02*
X640100D01*
X635000Y502900D02*
Y513100D01*
X502900Y25400D02*
X513100D01*
X508000Y20300D02*
Y30500D01*
X528300Y25400D02*
X538500D01*
X533400Y20300D02*
Y30500D01*
X553700Y25400D02*
X563900D01*
X558800Y20300D02*
Y30500D01*
X579100Y25400D02*
X589300D01*
X584200Y20300D02*
Y30500D01*
X604500Y25400D02*
X614700D01*
X609600Y20300D02*
Y30500D01*
X629900Y25400D02*
X640100D01*
X635000Y20300D02*
Y30500D01*
X274300Y25400D02*
X284500D01*
X279400Y20300D02*
Y30500D01*
X299700Y25400D02*
X309900D01*
X304800Y20300D02*
Y30500D01*
X325100Y25400D02*
X335300D01*
X330200Y20300D02*
Y30500D01*
X350500Y25400D02*
X360700D01*
X355600Y20300D02*
Y30500D01*
X375900Y25400D02*
X386100D01*
X381000Y20300D02*
Y30500D01*
X401300Y25400D02*
X411500D01*
X406400Y20300D02*
Y30500D01*
X426700Y25400D02*
X436900D01*
X431800Y20300D02*
Y30500D01*
X452100Y25400D02*
X462300D01*
X457200Y20300D02*
Y30500D01*
X43180Y228600D02*
X58420D01*
X50800Y220980D02*
Y236220D01*
X43180Y298450D02*
X58420D01*
X50800Y290830D02*
Y306070D01*
X582930Y355600D02*
X585470D01*
X584200Y354330D02*
Y356870D01*
X582930Y342900D02*
X585470D01*
X584200Y341630D02*
Y344170D01*
X582930Y330200D02*
X585470D01*
X584200Y328930D02*
Y331470D01*
X582930Y317500D02*
X585470D01*
X584200Y316230D02*
Y318770D01*
X582930Y304800D02*
X585470D01*
X584200Y303530D02*
Y306070D01*
X582930Y292100D02*
X585470D01*
X584200Y290830D02*
Y293370D01*
X582930Y241300D02*
X585470D01*
X584200Y240030D02*
Y242570D01*
X582930Y228600D02*
X585470D01*
X584200Y227330D02*
Y229870D01*
X582930Y215900D02*
X585470D01*
X584200Y214630D02*
Y217170D01*
X582930Y203200D02*
X585470D01*
X584200Y201930D02*
Y204470D01*
X582930Y190500D02*
X585470D01*
X584200Y189230D02*
Y191770D01*
X582930Y177800D02*
X585470D01*
X584200Y176530D02*
Y179070D01*
X403860Y222250D02*
X408940D01*
X406400Y219710D02*
Y224790D01*
X365760Y222250D02*
X370840D01*
X368300Y219710D02*
Y224790D01*
X328930Y215900D02*
X331470D01*
X330200Y214630D02*
Y217170D01*
X246380Y165100D02*
X248920D01*
X247650Y163830D02*
Y166370D01*
X187960Y165100D02*
X193040D01*
X190500Y162560D02*
Y167640D01*
X143510Y165100D02*
X148590D01*
X146050Y162560D02*
Y167640D01*
M02*
