G04*
G04 #@! TF.GenerationSoftware,Altium Limited,Altium Designer,23.0.1 (38)*
G04*
G04 Layer_Physical_Order=1*
G04 Layer_Color=255*
%FSLAX44Y44*%
%MOMM*%
G71*
G04*
G04 #@! TF.SameCoordinates,0F5A5953-1C99-4B13-B072-97D860EFC2FA*
G04*
G04*
G04 #@! TF.FilePolarity,Positive*
G04*
G01*
G75*
%ADD13C,0.2540*%
%ADD14R,0.4500X0.4500*%
%ADD15R,0.4500X0.3500*%
%ADD16R,1.8000X7.5000*%
G04:AMPARAMS|DCode=17|XSize=1.2544mm|YSize=0.5321mm|CornerRadius=0.2661mm|HoleSize=0mm|Usage=FLASHONLY|Rotation=90.000|XOffset=0mm|YOffset=0mm|HoleType=Round|Shape=RoundedRectangle|*
%AMROUNDEDRECTD17*
21,1,1.2544,0.0000,0,0,90.0*
21,1,0.7223,0.5321,0,0,90.0*
1,1,0.5321,0.0000,0.3611*
1,1,0.5321,0.0000,-0.3611*
1,1,0.5321,0.0000,-0.3611*
1,1,0.5321,0.0000,0.3611*
%
%ADD17ROUNDEDRECTD17*%
%ADD18R,0.5321X1.2544*%
%ADD19R,1.4000X0.9500*%
%ADD20R,3.9000X6.7600*%
%ADD21R,0.7000X6.7600*%
%ADD22R,1.5300X1.5300*%
%ADD23C,1.5300*%
%ADD24C,2.5400*%
%ADD25C,0.5080*%
%ADD26C,0.7112*%
%ADD27C,0.3810*%
G36*
X508000Y361950D02*
Y360190D01*
X503710D01*
Y330200D01*
X509750D01*
Y317500D01*
X503710D01*
Y287510D01*
X508000D01*
Y245890D01*
X503710D01*
Y215900D01*
X509750D01*
Y203200D01*
X503710D01*
Y177800D01*
X495300D01*
X431800Y241300D01*
X234950D01*
X203200Y209550D01*
Y196850D01*
X107950D01*
X19050Y285750D01*
Y323850D01*
X25400Y330200D01*
X63500D01*
X101600Y368300D01*
X501650D01*
X508000Y361950D01*
D02*
G37*
G36*
X596900D02*
Y171450D01*
X590550Y165100D01*
X527050D01*
X520700Y171450D01*
Y361950D01*
X527050Y368300D01*
X590550D01*
X596900Y361950D01*
D02*
G37*
G36*
X273050Y82550D02*
X254000D01*
Y114300D01*
X241300Y127000D01*
X222250D01*
Y139700D01*
X241300D01*
X254000Y152400D01*
Y158750D01*
X273050D01*
Y82550D01*
D02*
G37*
G36*
X469900Y139700D02*
Y19050D01*
X463550Y12700D01*
X450850D01*
X444500Y19050D01*
Y38100D01*
X438150Y44450D01*
X400050D01*
X393700Y38100D01*
Y19050D01*
X387350Y12700D01*
X374650D01*
X368300Y19050D01*
Y38100D01*
X361950Y44450D01*
X349250D01*
X311150Y82550D01*
Y158750D01*
X317500Y165100D01*
X330200D01*
Y190500D01*
X361950Y196850D01*
X412750D01*
X469900Y139700D01*
D02*
G37*
%LPC*%
G36*
X52301Y313690D02*
X52070D01*
Y299720D01*
X66040D01*
Y299951D01*
X65454Y302895D01*
X64306Y305669D01*
X62638Y308165D01*
X60515Y310288D01*
X58019Y311956D01*
X55245Y313104D01*
X52301Y313690D01*
D02*
G37*
G36*
X49530D02*
X49299D01*
X46355Y313104D01*
X43581Y311956D01*
X41085Y310288D01*
X38962Y308165D01*
X37294Y305669D01*
X36146Y302895D01*
X35560Y299951D01*
Y299720D01*
X49530D01*
Y313690D01*
D02*
G37*
G36*
X66040Y297180D02*
X52070D01*
Y283210D01*
X52301D01*
X55245Y283796D01*
X58019Y284944D01*
X60515Y286612D01*
X62638Y288735D01*
X64306Y291231D01*
X65454Y294005D01*
X66040Y296949D01*
Y297180D01*
D02*
G37*
G36*
X49530D02*
X35560D01*
Y296949D01*
X36146Y294005D01*
X37294Y291231D01*
X38962Y288735D01*
X41085Y286612D01*
X43581Y284944D01*
X46355Y283796D01*
X49299Y283210D01*
X49530D01*
Y297180D01*
D02*
G37*
G36*
X585470Y360573D02*
Y356870D01*
X589173D01*
X588507Y358478D01*
X587078Y359907D01*
X585470Y360573D01*
D02*
G37*
G36*
X582930D02*
X581322Y359907D01*
X579893Y358478D01*
X579227Y356870D01*
X582930D01*
Y360573D01*
D02*
G37*
G36*
X589173Y354330D02*
X585470D01*
Y350628D01*
X587078Y351293D01*
X588507Y352722D01*
X589173Y354330D01*
D02*
G37*
G36*
X582930D02*
X579227D01*
X579893Y352722D01*
X581322Y351293D01*
X582930Y350628D01*
Y354330D01*
D02*
G37*
G36*
X585470Y347873D02*
Y344170D01*
X589173D01*
X588507Y345778D01*
X587078Y347207D01*
X585470Y347873D01*
D02*
G37*
G36*
X582930D02*
X581322Y347207D01*
X579893Y345778D01*
X579227Y344170D01*
X582930D01*
Y347873D01*
D02*
G37*
G36*
X589173Y341630D02*
X585470D01*
Y337928D01*
X587078Y338593D01*
X588507Y340022D01*
X589173Y341630D01*
D02*
G37*
G36*
X582930D02*
X579227D01*
X579893Y340022D01*
X581322Y338593D01*
X582930Y337928D01*
Y341630D01*
D02*
G37*
G36*
X585470Y335173D02*
Y331470D01*
X589173D01*
X588507Y333078D01*
X587078Y334507D01*
X585470Y335173D01*
D02*
G37*
G36*
X582930D02*
X581322Y334507D01*
X579893Y333078D01*
X579227Y331470D01*
X582930D01*
Y335173D01*
D02*
G37*
G36*
X589173Y328930D02*
X585470D01*
Y325228D01*
X587078Y325893D01*
X588507Y327322D01*
X589173Y328930D01*
D02*
G37*
G36*
X582930D02*
X579227D01*
X579893Y327322D01*
X581322Y325893D01*
X582930Y325228D01*
Y328930D01*
D02*
G37*
G36*
X585470Y322472D02*
Y318770D01*
X589173D01*
X588507Y320378D01*
X587078Y321807D01*
X585470Y322472D01*
D02*
G37*
G36*
X582930D02*
X581322Y321807D01*
X579893Y320378D01*
X579227Y318770D01*
X582930D01*
Y322472D01*
D02*
G37*
G36*
X589173Y316230D02*
X585470D01*
Y312528D01*
X587078Y313193D01*
X588507Y314622D01*
X589173Y316230D01*
D02*
G37*
G36*
X582930D02*
X579227D01*
X579893Y314622D01*
X581322Y313193D01*
X582930Y312528D01*
Y316230D01*
D02*
G37*
G36*
X585470Y309772D02*
Y306070D01*
X589173D01*
X588507Y307678D01*
X587078Y309107D01*
X585470Y309772D01*
D02*
G37*
G36*
X582930D02*
X581322Y309107D01*
X579893Y307678D01*
X579227Y306070D01*
X582930D01*
Y309772D01*
D02*
G37*
G36*
X589173Y303530D02*
X585470D01*
Y299827D01*
X587078Y300493D01*
X588507Y301922D01*
X589173Y303530D01*
D02*
G37*
G36*
X582930D02*
X579227D01*
X579893Y301922D01*
X581322Y300493D01*
X582930Y299827D01*
Y303530D01*
D02*
G37*
G36*
X585470Y297073D02*
Y293370D01*
X589173D01*
X588507Y294978D01*
X587078Y296407D01*
X585470Y297073D01*
D02*
G37*
G36*
X582930D02*
X581322Y296407D01*
X579893Y294978D01*
X579227Y293370D01*
X582930D01*
Y297073D01*
D02*
G37*
G36*
X589173Y290830D02*
X585470D01*
Y287127D01*
X587078Y287793D01*
X588507Y289222D01*
X589173Y290830D01*
D02*
G37*
G36*
X582930D02*
X579227D01*
X579893Y289222D01*
X581322Y287793D01*
X582930Y287127D01*
Y290830D01*
D02*
G37*
G36*
X585470Y246273D02*
Y242570D01*
X589173D01*
X588507Y244178D01*
X587078Y245607D01*
X585470Y246273D01*
D02*
G37*
G36*
X582930D02*
X581322Y245607D01*
X579893Y244178D01*
X579227Y242570D01*
X582930D01*
Y246273D01*
D02*
G37*
G36*
X589173Y240030D02*
X585470D01*
Y236327D01*
X587078Y236993D01*
X588507Y238422D01*
X589173Y240030D01*
D02*
G37*
G36*
X582930D02*
X579227D01*
X579893Y238422D01*
X581322Y236993D01*
X582930Y236327D01*
Y240030D01*
D02*
G37*
G36*
X585470Y233573D02*
Y229870D01*
X589173D01*
X588507Y231478D01*
X587078Y232907D01*
X585470Y233573D01*
D02*
G37*
G36*
X582930D02*
X581322Y232907D01*
X579893Y231478D01*
X579227Y229870D01*
X582930D01*
Y233573D01*
D02*
G37*
G36*
X589173Y227330D02*
X585470D01*
Y223627D01*
X587078Y224293D01*
X588507Y225722D01*
X589173Y227330D01*
D02*
G37*
G36*
X582930D02*
X579227D01*
X579893Y225722D01*
X581322Y224293D01*
X582930Y223627D01*
Y227330D01*
D02*
G37*
G36*
X585470Y220872D02*
Y217170D01*
X589173D01*
X588507Y218778D01*
X587078Y220207D01*
X585470Y220872D01*
D02*
G37*
G36*
X582930D02*
X581322Y220207D01*
X579893Y218778D01*
X579227Y217170D01*
X582930D01*
Y220872D01*
D02*
G37*
G36*
X589173Y214630D02*
X585470D01*
Y210928D01*
X587078Y211593D01*
X588507Y213022D01*
X589173Y214630D01*
D02*
G37*
G36*
X582930D02*
X579227D01*
X579893Y213022D01*
X581322Y211593D01*
X582930Y210928D01*
Y214630D01*
D02*
G37*
G36*
X585470Y208172D02*
Y204470D01*
X589173D01*
X588507Y206078D01*
X587078Y207507D01*
X585470Y208172D01*
D02*
G37*
G36*
X582930D02*
X581322Y207507D01*
X579893Y206078D01*
X579227Y204470D01*
X582930D01*
Y208172D01*
D02*
G37*
G36*
X589173Y201930D02*
X585470D01*
Y198228D01*
X587078Y198893D01*
X588507Y200322D01*
X589173Y201930D01*
D02*
G37*
G36*
X582930D02*
X579227D01*
X579893Y200322D01*
X581322Y198893D01*
X582930Y198228D01*
Y201930D01*
D02*
G37*
G36*
X585470Y195473D02*
Y191770D01*
X589173D01*
X588507Y193378D01*
X587078Y194807D01*
X585470Y195473D01*
D02*
G37*
G36*
X582930D02*
X581322Y194807D01*
X579893Y193378D01*
X579227Y191770D01*
X582930D01*
Y195473D01*
D02*
G37*
G36*
X589173Y189230D02*
X585470D01*
Y185527D01*
X587078Y186193D01*
X588507Y187622D01*
X589173Y189230D01*
D02*
G37*
G36*
X582930D02*
X579227D01*
X579893Y187622D01*
X581322Y186193D01*
X582930Y185527D01*
Y189230D01*
D02*
G37*
G36*
X585470Y182773D02*
Y179070D01*
X589173D01*
X588507Y180678D01*
X587078Y182107D01*
X585470Y182773D01*
D02*
G37*
G36*
X582930D02*
X581322Y182107D01*
X579893Y180678D01*
X579227Y179070D01*
X582930D01*
Y182773D01*
D02*
G37*
G36*
X589173Y176530D02*
X585470D01*
Y172827D01*
X587078Y173493D01*
X588507Y174922D01*
X589173Y176530D01*
D02*
G37*
G36*
X582930D02*
X579227D01*
X579893Y174922D01*
X581322Y173493D01*
X582930Y172827D01*
Y176530D01*
D02*
G37*
%LPD*%
D13*
X260350Y203200D02*
Y254000D01*
X527050Y463550D02*
X647700Y342900D01*
Y63500D02*
Y342900D01*
X609600Y25400D02*
X647700Y63500D01*
X228600Y463550D02*
X527050D01*
X660400Y50800D02*
Y349250D01*
X635000Y25400D02*
X660400Y50800D01*
X209550Y508000D02*
X241300Y476250D01*
X533400D02*
X660400Y349250D01*
X241300Y476250D02*
X533400D01*
X184150Y508000D02*
X228600Y463550D01*
X260350Y124400D02*
X264100Y120650D01*
X260350Y124400D02*
Y182194D01*
X269850Y203200D02*
X322200D01*
X323700Y190500D02*
Y201700D01*
X322200Y203200D02*
X323700Y201700D01*
X260882Y194773D02*
Y202668D01*
X269850Y182194D02*
Y185805D01*
X260882Y194773D02*
X269850Y185805D01*
X260350Y203200D02*
X260882Y202668D01*
X247650Y165100D02*
Y165787D01*
D14*
X322200Y203200D02*
D03*
X330200D02*
D03*
D15*
X323700Y190500D02*
D03*
X330200D02*
D03*
D16*
X320100Y120650D02*
D03*
X264100D02*
D03*
D17*
X250850Y203200D02*
D03*
X260350D02*
D03*
X269850D02*
D03*
Y182194D02*
D03*
X260350D02*
D03*
D18*
X250850D02*
D03*
D19*
X406400Y209000D02*
D03*
Y190500D02*
D03*
X234950Y151850D02*
D03*
Y133350D02*
D03*
X146050Y181250D02*
D03*
Y199750D02*
D03*
X190500Y181250D02*
D03*
Y199750D02*
D03*
X368300Y209000D02*
D03*
Y190500D02*
D03*
D20*
X539750Y323850D02*
D03*
Y209550D02*
D03*
D21*
X569750Y323850D02*
D03*
X509750D02*
D03*
X569750Y209550D02*
D03*
X509750D02*
D03*
D22*
X184150Y508000D02*
D03*
X457200D02*
D03*
X508000Y25400D02*
D03*
X279400D02*
D03*
D23*
X209550Y508000D02*
D03*
X234950D02*
D03*
X260350D02*
D03*
X285750D02*
D03*
X311150D02*
D03*
X336550D02*
D03*
X361950D02*
D03*
X387350D02*
D03*
X412750D02*
D03*
X482600D02*
D03*
X508000D02*
D03*
X533400D02*
D03*
X558800D02*
D03*
X584200D02*
D03*
X609600D02*
D03*
X635000D02*
D03*
X533400Y25400D02*
D03*
X558800D02*
D03*
X584200D02*
D03*
X609600D02*
D03*
X635000D02*
D03*
X304800D02*
D03*
X330200D02*
D03*
X355600D02*
D03*
X381000D02*
D03*
X406400D02*
D03*
X431800D02*
D03*
X457200D02*
D03*
D24*
X50800Y228600D02*
D03*
Y298450D02*
D03*
D25*
X584200Y355600D02*
D03*
Y342900D02*
D03*
Y330200D02*
D03*
Y317500D02*
D03*
Y304800D02*
D03*
Y292100D02*
D03*
Y241300D02*
D03*
Y228600D02*
D03*
Y215900D02*
D03*
Y203200D02*
D03*
Y190500D02*
D03*
Y177800D02*
D03*
X330200Y215900D02*
D03*
X247650Y165100D02*
D03*
D26*
X406400Y222250D02*
D03*
X368300D02*
D03*
X190500Y165100D02*
D03*
X146050D02*
D03*
D27*
X234950Y151850D02*
Y196850D01*
X241300Y203200D02*
X250850D01*
X234950Y196850D02*
X241300Y203200D01*
X247650Y165787D02*
X250850Y168987D01*
Y182194D01*
X330200Y203200D02*
Y215900D01*
X406400Y209000D02*
Y222250D01*
X368300Y209000D02*
Y222250D01*
X190500Y165100D02*
Y181250D01*
X146050Y165100D02*
Y181250D01*
M02*
